<svg fill="none" height="24" viewBox="0 0 24 24" width="24" xmlns="http://www.w3.org/2000/svg"><g stroke="#292d32" stroke-linejoin="round" stroke-miterlimit="10" stroke-width="1.5"><path d="m2 22h20" stroke-linecap="round"/><path d="m2.94995 22 .05-12.03001c0-.61.29-1.18995.77-1.56995l7.00005-5.45001c.72-.56 1.7299-.56 2.4599 0l7.0001 5.44c.49.38.77.95996.77 1.57996v12.03001"/><path d="m13 17h-2c-.83 0-1.5.67-1.5 1.5v3.5h5v-3.5c0-.83-.67-1.5-1.5-1.5z"/><path d="m9.5 13.75h-2c-.55 0-1-.45-1-1v-1.5c0-.55.45-1 1-1h2c.55 0 1 .45 1 1v1.5c0 .55-.45 1-1 1z"/><path d="m16.5 13.75h-2c-.55 0-1-.45-1-1v-1.5c0-.55.45-1 1-1h2c.55 0 1 .45 1 1v1.5c0 .55-.45 1-1 1z"/><path d="m19.0001 7-.03-3h-4.4" stroke-linecap="round"/></g></svg>